<mxfile host="app.diagrams.net" agent="Mozilla/5.0 (Windows NT 10.0; Win64; x64) AppleWebKit/537.36 (KHTML, like Gecko) Chrome/131.0.0.0 Safari/537.36" version="26.0.4">
  <diagram id="JBXGYJQ5ib2Dh_Tz4ldn" name="Page-1">
    <mxGraphModel dx="2074" dy="1180" grid="1" gridSize="10" guides="1" tooltips="1" connect="1" arrows="1" fold="1" page="1" pageScale="1" pageWidth="827" pageHeight="1169" math="0" shadow="0">
      <root>
        <mxCell id="0" />
        <mxCell id="1" parent="0" />
        <mxCell id="MwpgaXS6SGGW859StKkt-3" style="edgeStyle=orthogonalEdgeStyle;rounded=0;orthogonalLoop=1;jettySize=auto;html=1;exitX=0.5;exitY=1;exitDx=0;exitDy=0;" parent="1" source="MwpgaXS6SGGW859StKkt-1" target="MwpgaXS6SGGW859StKkt-2" edge="1">
          <mxGeometry relative="1" as="geometry" />
        </mxCell>
        <mxCell id="MwpgaXS6SGGW859StKkt-14" style="edgeStyle=orthogonalEdgeStyle;rounded=0;orthogonalLoop=1;jettySize=auto;html=1;exitX=0;exitY=0.5;exitDx=0;exitDy=0;entryX=0.25;entryY=0;entryDx=0;entryDy=0;" parent="1" source="MwpgaXS6SGGW859StKkt-1" target="MwpgaXS6SGGW859StKkt-7" edge="1">
          <mxGeometry relative="1" as="geometry" />
        </mxCell>
        <mxCell id="MwpgaXS6SGGW859StKkt-15" style="edgeStyle=orthogonalEdgeStyle;rounded=0;orthogonalLoop=1;jettySize=auto;html=1;exitX=1;exitY=0.5;exitDx=0;exitDy=0;entryX=0.75;entryY=0;entryDx=0;entryDy=0;" parent="1" source="MwpgaXS6SGGW859StKkt-1" target="MwpgaXS6SGGW859StKkt-8" edge="1">
          <mxGeometry relative="1" as="geometry" />
        </mxCell>
        <mxCell id="MwpgaXS6SGGW859StKkt-1" value="Alkalmaz치s" style="rounded=1;whiteSpace=wrap;html=1;" parent="1" vertex="1">
          <mxGeometry x="340" y="120" width="130" height="60" as="geometry" />
        </mxCell>
        <mxCell id="MwpgaXS6SGGW859StKkt-10" style="edgeStyle=orthogonalEdgeStyle;rounded=0;orthogonalLoop=1;jettySize=auto;html=1;exitX=0;exitY=0.5;exitDx=0;exitDy=0;entryX=0.5;entryY=0;entryDx=0;entryDy=0;" parent="1" source="MwpgaXS6SGGW859StKkt-2" target="MwpgaXS6SGGW859StKkt-7" edge="1">
          <mxGeometry relative="1" as="geometry" />
        </mxCell>
        <mxCell id="MwpgaXS6SGGW859StKkt-11" style="edgeStyle=orthogonalEdgeStyle;rounded=0;orthogonalLoop=1;jettySize=auto;html=1;exitX=1;exitY=0.5;exitDx=0;exitDy=0;entryX=0.5;entryY=0;entryDx=0;entryDy=0;" parent="1" source="MwpgaXS6SGGW859StKkt-2" target="MwpgaXS6SGGW859StKkt-8" edge="1">
          <mxGeometry relative="1" as="geometry" />
        </mxCell>
        <mxCell id="MwpgaXS6SGGW859StKkt-2" value="Transaction Manager" style="rounded=1;whiteSpace=wrap;html=1;" parent="1" vertex="1">
          <mxGeometry x="340" y="240" width="130" height="60" as="geometry" />
        </mxCell>
        <mxCell id="MwpgaXS6SGGW859StKkt-4" value="jakarta.transaction" style="text;html=1;strokeColor=none;fillColor=none;align=center;verticalAlign=middle;whiteSpace=wrap;rounded=0;" parent="1" vertex="1">
          <mxGeometry x="450" y="200" width="40" height="20" as="geometry" />
        </mxCell>
        <mxCell id="MwpgaXS6SGGW859StKkt-6" value="Adatb치zis" style="shape=cylinder3;whiteSpace=wrap;html=1;boundedLbl=1;backgroundOutline=1;size=15;fillColor=#fff2cc;strokeColor=#d6b656;" parent="1" vertex="1">
          <mxGeometry x="220" y="450" width="70" height="100" as="geometry" />
        </mxCell>
        <mxCell id="MwpgaXS6SGGW859StKkt-12" style="edgeStyle=orthogonalEdgeStyle;rounded=0;orthogonalLoop=1;jettySize=auto;html=1;exitX=0.5;exitY=1;exitDx=0;exitDy=0;" parent="1" source="MwpgaXS6SGGW859StKkt-7" target="MwpgaXS6SGGW859StKkt-6" edge="1">
          <mxGeometry relative="1" as="geometry" />
        </mxCell>
        <mxCell id="MwpgaXS6SGGW859StKkt-7" value="Resource Manager" style="rounded=1;whiteSpace=wrap;html=1;fillColor=#fff2cc;strokeColor=#d6b656;" parent="1" vertex="1">
          <mxGeometry x="190" y="350" width="130" height="60" as="geometry" />
        </mxCell>
        <mxCell id="MwpgaXS6SGGW859StKkt-13" style="edgeStyle=orthogonalEdgeStyle;rounded=0;orthogonalLoop=1;jettySize=auto;html=1;exitX=0.5;exitY=1;exitDx=0;exitDy=0;entryX=0.5;entryY=0;entryDx=0;entryDy=0;entryPerimeter=0;" parent="1" source="MwpgaXS6SGGW859StKkt-8" target="MwpgaXS6SGGW859StKkt-9" edge="1">
          <mxGeometry relative="1" as="geometry" />
        </mxCell>
        <mxCell id="MwpgaXS6SGGW859StKkt-8" value="Resource Manager" style="rounded=1;whiteSpace=wrap;html=1;" parent="1" vertex="1">
          <mxGeometry x="490" y="350" width="130" height="60" as="geometry" />
        </mxCell>
        <mxCell id="MwpgaXS6SGGW859StKkt-9" value="MOM" style="shape=cylinder3;whiteSpace=wrap;html=1;boundedLbl=1;backgroundOutline=1;size=15;fillColor=#fff2cc;strokeColor=#d6b656;" parent="1" vertex="1">
          <mxGeometry x="520" y="450" width="70" height="100" as="geometry" />
        </mxCell>
        <mxCell id="MwpgaXS6SGGW859StKkt-16" value="JDBC" style="text;html=1;strokeColor=none;fillColor=none;align=center;verticalAlign=middle;whiteSpace=wrap;rounded=0;" parent="1" vertex="1">
          <mxGeometry x="230" y="200" width="40" height="20" as="geometry" />
        </mxCell>
        <mxCell id="MwpgaXS6SGGW859StKkt-17" value="JMS" style="text;html=1;strokeColor=none;fillColor=none;align=center;verticalAlign=middle;whiteSpace=wrap;rounded=0;" parent="1" vertex="1">
          <mxGeometry x="590" y="200" width="40" height="20" as="geometry" />
        </mxCell>
        <mxCell id="MwpgaXS6SGGW859StKkt-18" value="jakarta.transaction.xa" style="text;html=1;strokeColor=none;fillColor=none;align=center;verticalAlign=middle;whiteSpace=wrap;rounded=0;" parent="1" vertex="1">
          <mxGeometry x="300" y="310" width="40" height="20" as="geometry" />
        </mxCell>
        <mxCell id="MwpgaXS6SGGW859StKkt-19" value="jakarta.transaction.xa" style="text;html=1;strokeColor=none;fillColor=none;align=center;verticalAlign=middle;whiteSpace=wrap;rounded=0;" parent="1" vertex="1">
          <mxGeometry x="470" y="310" width="40" height="20" as="geometry" />
        </mxCell>
        <mxCell id="MwpgaXS6SGGW859StKkt-20" value="Alkalmaz치s" style="rounded=1;whiteSpace=wrap;html=1;" parent="1" vertex="1">
          <mxGeometry x="340" y="120" width="130" height="60" as="geometry" />
        </mxCell>
        <mxCell id="MwpgaXS6SGGW859StKkt-21" value="Transaction Manager" style="rounded=1;whiteSpace=wrap;html=1;" parent="1" vertex="1">
          <mxGeometry x="340" y="240" width="130" height="60" as="geometry" />
        </mxCell>
        <mxCell id="MwpgaXS6SGGW859StKkt-22" value="Alkalmaz치s" style="rounded=1;whiteSpace=wrap;html=1;fillColor=#fff2cc;strokeColor=#d6b656;" parent="1" vertex="1">
          <mxGeometry x="340" y="120" width="130" height="60" as="geometry" />
        </mxCell>
        <mxCell id="MwpgaXS6SGGW859StKkt-23" value="Transaction Manager" style="rounded=1;whiteSpace=wrap;html=1;fillColor=#fff2cc;strokeColor=#d6b656;" parent="1" vertex="1">
          <mxGeometry x="340" y="240" width="130" height="60" as="geometry" />
        </mxCell>
        <mxCell id="MwpgaXS6SGGW859StKkt-24" value="Resource Manager" style="rounded=1;whiteSpace=wrap;html=1;fillColor=#fff2cc;strokeColor=#d6b656;" parent="1" vertex="1">
          <mxGeometry x="490" y="350" width="130" height="60" as="geometry" />
        </mxCell>
      </root>
    </mxGraphModel>
  </diagram>
</mxfile>
